HIERARCHY
ROOT Hips
{
	OFFSET	0.00	0.00	0.00
	CHANNELS 6 Xposition Yposition Zposition Zrotation Xrotation Yrotation
	JOINT Spine
	{
		OFFSET	 0.00	0.01	 0.00
		CHANNELS 3 Zrotation Xrotation Yrotation
		JOINT Spine1
		{
			OFFSET	 0.00	 2.45913012437421	 0.00
			CHANNELS 3 Zrotation Xrotation Yrotation
            JOINT Neck
            {
                OFFSET	 0.00	 2.48462964506057	 0.00
                CHANNELS 3 Zrotation Xrotation Yrotation
                JOINT Head
                {
                    OFFSET	 0.00	 0.927524780924562	 0.00
                    CHANNELS 3 Zrotation Xrotation Yrotation
                    End Site 
                    {
                        OFFSET	 0.00	 1.14999962169752	 0.00
                    }
                }
            }
			JOINT LeftShoulder
			{
				OFFSET	 0.00	 2.48462964506057	 0.00
				CHANNELS 3 Zrotation Xrotation Yrotation
				JOINT LeftUpArm
				{
					OFFSET	 0.00	 1.24881979654096	 0.00
					CHANNELS 3 Zrotation Xrotation Yrotation
					JOINT LeftForeArm
					{
						OFFSET	 0.00	2.59758046908119	 0.00
						CHANNELS 3 Zrotation Xrotation Yrotation
						JOINT LeftHand
						{
							OFFSET	 0.00	2.45542024364365	 0.00
							CHANNELS 3 Zrotation Xrotation Yrotation
							JOINT LeftHandThumb 
							{
								OFFSET	 0.00	0.00	 0.00
								CHANNELS 3 Zrotation Xrotation Yrotation
								End Site
								{
									OFFSET	 0.00	0.00	1.00000003353624
								}
							}
							JOINT L_Wrist_End 
							{
								OFFSET	 0.00	0.99999967115358	 0.00
								CHANNELS 3 Zrotation Xrotation Yrotation
								End Site 
								{
									OFFSET	 0.00	 0.00	 0.00
								}
							}
						}
					}
				}
			}
			JOINT RightShoulder
			{
				OFFSET	 0.00	 2.48462964506057	 0.00
				CHANNELS 3 Zrotation Xrotation Yrotation
				JOINT RightUpArm
				{
					OFFSET	 0.00	 1.24881979654096	 0.00
					CHANNELS 3 Zrotation Xrotation Yrotation
					JOINT RightForeArm
					{
						OFFSET	 0.00	2.59758046908119	 0.00
						CHANNELS 3 Zrotation Xrotation Yrotation
						JOINT RightHand
						{
							OFFSET	 0.00	2.45542024364365	 0.00
							CHANNELS 3 Zrotation Xrotation Yrotation
							JOINT RightHandThumb 
							{
								OFFSET	 0.00	0.00	 0.00
								CHANNELS 3 Zrotation Xrotation Yrotation
								End Site
								{
									OFFSET	 0.00	0.00	1.00000003353624
								}
							}
							JOINT R_Wrist_End 
							{
								OFFSET	 0.00	0.99999967115358	 0.00
								CHANNELS 3 Zrotation Xrotation Yrotation
								End Site 
								{
									OFFSET	 0.00	 0.00	 0.00
								}
							}
						}
					}
				}
			}
		}
	}
	JOINT LeftUpLeg
	{
		OFFSET	 1.2719394002717	 0.00	 0.00
		CHANNELS 3 Zrotation Xrotation Yrotation
		JOINT LeftLowLeg
		{
			OFFSET	 0.00	-4.3429100912261	 0.00
			CHANNELS 3 Zrotation Xrotation Yrotation
			JOINT LeftFoot
			{
				OFFSET	 0.00	-4.48767017425826	 0.00
				CHANNELS 3 Zrotation Xrotation Yrotation
				JOINT LeftToeBase
                {
                    OFFSET	 0.00	0.00	 1.51507020887566
                    CHANNELS 3 Zrotation Xrotation Yrotation
                    End Site 
                    {
                        OFFSET	 0.00	0.00	 0.75000010571191
                    }
                }
			}
		}
	}
	JOINT RightUpLeg
	{
		OFFSET	 -1.2719393604653	 0.00	 0.00
		CHANNELS 3 Zrotation Xrotation Yrotation
		JOINT RightLowLeg
		{
			OFFSET	 0.00	-4.3429100912261	 0.00
			CHANNELS 3 Zrotation Xrotation Yrotation
			JOINT RightFoot
			{
				OFFSET	 0.00	-4.48767017425826	 0.00
				CHANNELS 3 Zrotation Xrotation Yrotation
				JOINT RightToeBase
                {
                    OFFSET	 0.00	0.00	 1.51507020887566
                    CHANNELS 3 Zrotation Xrotation Yrotation
                    End Site 
                    {
                        OFFSET	 0.00	0.00	 0.749999965609858
                    }
                }   
			}
		}
	}
}
MOTION 
Frames:	8 
Frame Time: 0.02 
 1.005550003051758 5.847269897460937 9.362969970703125 -154.507 81.7446 513.279 1.61874 -6.89802 -0.918631 3.96581 -10.9233 -0.600369 -22.6715 68.6872 734.965 72.8949 -73.9073 417.754 -114.632904 -11.2838 -9.93275 13.5068 9.21688 -24.7024 0.0 6.39655 0.0 24.1851 -9.39118 28.2079 0.0 0.0 0.0 0.0 0.0 0.0 111.6095 -6.55361 -359.067 -10.2459 -0.627488 54.9416 0.0 15.3063 0.0 -29.0473 -8.52963 -44.6739 0.0 0.0 0.0 0.0 0.0 0.0 2.83085 -5.42922 3.69715 0.0 7.37512 0.0 -15.0028 0.31709957 8.32002 0.0 -29.543499 0.0 7.03827 -5.84853 3.44427 0.0 8.59217 0.0 13.7051 4.932 -18.7193 0.0 -30.1884 0.0 
  1.0060900115966798 5.848800048828125 9.363309936523438 -154.507 81.7345 513.235 1.62742 -6.87532 -0.918157 3.96149 -10.921 -0.601451 -22.6432 68.7348 734.905 72.7977 -73.9141 417.614 -114.6527 -11.2898 -9.95035 13.5778 9.19832 -24.578 0.0 6.24849 0.0 24.2996 -9.39052 28.3301 0.0 0.0 0.0 0.0 0.0 0.0 111.604996 -6.52896 -359.064 -10.266 -0.594601 55.106 0.0 15.2516 0.0 -29.1224 -8.44591 -44.807 0.0 0.0 0.0 0.0 0.0 0.0 2.83725 -5.44523 3.71676 0.0 7.38516 0.0 -15.0101 0.3142004 8.33243 0.0 -29.5224 0.0 7.03808 -5.85864 3.41752 0.0 8.57304 0.0 13.6939 4.9763002 -18.659 0.0 -30.212 0.0 
  1.0068900299072265 5.849879760742187 9.3635400390625 -154.55 81.7285 513.211 1.63395 -6.85596 -0.899147 3.95048 -10.9176 -0.582663 -22.5602 68.8101 734.769 72.7225 -73.921 417.478 -114.666 -11.3038 -9.97722 13.6426 9.20706 -24.5213 0.0 6.15471 0.0 24.4645 -9.45885 28.4264 0.0 0.0 0.0 0.0 0.0 0.0 111.594604 -6.50076 -359.074 -10.2485 -0.631265 55.1364 0.0 15.3028 0.0 -29.1481 -8.49485 -44.8063 0.0 0.0 0.0 0.0 0.0 0.0 2.83359 -5.44551 3.74194 0.0 7.37979 0.0 -14.994 0.3092003 8.37569 0.0 -29.486 0.0 7.03269 -5.86962 3.40452 0.0 8.56032 0.0 13.6712 5.01692 -18.6055 0.0 -30.2002 0.0 
  1.0074400329589843 5.850020141601562 9.363610229492188 -154.621 81.7274 513.217 1.63579 -6.86657 -0.87655 3.95192 -10.8764 -0.561264 -22.541 68.8565 734.705 72.6653 -73.9482 417.363 -114.6707 -11.3129 -9.95604 13.675 9.18376 -24.5362 0.0 6.12279 0.0 24.5846 -9.45555 28.457 0.0 0.0 0.0 0.0 0.0 0.0 111.6074 -6.48401 -359.078 -10.2972 -0.644088 55.0667 0.0 15.2659 0.0 -29.2163 -8.44882 -44.8541 0.0 0.0 0.0 0.0 0.0 0.0 2.82569 -5.43181 3.78111 0.0 7.36085 0.0 -14.9853 0.31569958 8.39244 0.0 -29.5425 0.0 7.02511 -5.87559 3.44128 0.0 8.5563 0.0 13.6783 5.03063 -18.5814 0.0 -30.2267 0.0 
  1.0081600189208983 5.8510302734375 9.363709716796874 -154.665 81.7281 513.208 1.6346 -6.86338 -0.858508 3.95092 -10.8163 -0.544882 -22.4403 68.9467 734.518 72.5992 -73.9844 417.231 -114.6742 -11.3381 -9.96676 13.7207 9.16832 -24.4965 0.0 6.1289 0.0 24.6637 -9.45244 28.1988 0.0 0.0 0.0 0.0 0.0 0.0 111.6158 -6.50298 -359.022 -10.3461 -0.616777 55.0491 0.0 15.2755 0.0 -29.1544 -8.51081 -44.9288 0.0 0.0 0.0 0.0 0.0 0.0 2.81739 -5.43014 3.79018 0.0 7.36251 0.0 -14.9752 0.30200005 8.43867 0.0 -29.5023 0.0 7.01934 -5.88608 3.45501 0.0 8.55539 0.0 13.662 5.05056 -18.5627 0.0 -30.1781 0.0 
  1.0086100006103516 5.8516302490234375 9.363800048828125 -154.658 81.7298 513.181 1.63312 -6.86077 -0.850394 3.94949 -10.7869 -0.537428 -22.3117 69.0203 734.328 72.5397 -73.9911 417.163 -114.6776 -11.3467 -9.99629 13.7532 9.17784 -24.4986 0.0 6.1561 0.0 24.7289 -9.46967 28.3019 0.0 0.0 0.0 0.0 0.0 0.0 111.6042 -6.49648 -358.971 -10.3345 -0.626031 55.0971 0.0 15.3504 0.0 -29.1245 -8.66749 -45.0142 0.0 0.0 0.0 0.0 0.0 0.0 2.81547 -5.42831 3.78981 0.0 7.36188 0.0 -14.9873 0.29300022 8.45423 0.0 -29.491001 0.0 7.02115 -5.89139 3.49729 0.0 8.55785 0.0 13.6585 5.0583897 -18.5908 0.0 -30.2127 0.0 
  1.0091799926757812 5.852459716796875 9.363800048828125 -154.632 81.7295 513.137 1.62784 -6.83887 -0.837959 3.96537 -10.7779 -0.524252 -22.2137 69.123 734.153 72.3823 -74.0059 416.981 -114.6678 -11.3627 -10.0464 13.7661 9.20093 -24.4323 0.0 6.20678 0.0 24.731 -9.41811 28.3156 0.0 0.0 0.0 0.0 0.0 0.0 111.5747 -6.52655 -358.925 -10.3221 -0.621321 54.9741 0.0 15.3879 0.0 -29.2016 -8.72615 -44.9505 0.0 0.0 0.0 0.0 0.0 0.0 2.81608 -5.43009 3.78859 0.0 7.36419 0.0 -14.9823 0.29129982 8.47202 0.0 -29.4831 0.0 7.02237 -5.896 3.49426 0.0 8.55906 0.0 13.6587 5.06672 -18.5784 0.0 -30.2476 0.0 
  1.0097000122070312 5.85302978515625 9.3639599609375 -154.626 81.7298 513.13 1.61673 -6.8339 -0.831735 3.96854 -10.7554 -0.516841 -22.0405 69.2399 733.9 72.2267 -73.9999 416.82 -114.6587 -11.3723 -10.0774 13.798 9.2239 -24.3331 0.0 6.27527 0.0 24.6898 -9.42026 28.24 0.0 0.0 0.0 0.0 0.0 0.0 111.6018 -6.50413 -358.96 -10.397 -0.682656 55.1118 0.0 15.3134 0.0 -29.0506 -8.54638 -44.9726 0.0 0.0 0.0 0.0 0.0 0.0 2.81391 -5.43008 3.79553 0.0 7.3589 0.0 -14.967 0.29800034 8.47753 0.0 -29.497501 0.0 7.01537 -5.88561 3.48061 0.0 8.53612 0.0 13.6689 5.0777597 -18.5492 0.0 -30.250801 0.0 
